<svg xmlns="http://www.w3.org/2000/svg" xmlns:xlink="http://www.w3.org/1999/xlink" viewBox="0 0 80 80"><defs><style>.cls-1{fill:none;}.cls-2{clip-path:url(#clip-path);}.cls-3{fill:#fff;}.cls-4{fill:#ffea8c;}.cls-5{fill:#68c8ff;}.cls-6{fill:url(#Безымянный_градиент);}.cls-7{fill:url(#Безымянный_градиент_2);}.cls-8{fill:url(#Безымянный_градиент_3);}.cls-9{fill:url(#Безымянный_градиент_4);}.cls-10{fill:url(#Безымянный_градиент_5);}</style><clipPath id="clip-path"><rect class="cls-1" width="80" height="80"/></clipPath><linearGradient id="Безымянный_градиент" x1="7.88" y1="28.07" x2="73.62" y2="24.33" gradientTransform="matrix(1, 0, 0, -1, 0, 79.89)" gradientUnits="userSpaceOnUse"><stop offset="0" stop-color="#9fe18f"/><stop offset="1" stop-color="#0bb496"/></linearGradient><linearGradient id="Безымянный_градиент_2" x1="53.08" y1="27.89" x2="27.91" y2="7.33" gradientTransform="matrix(1, 0, 0, -1, 0, 79.89)" gradientUnits="userSpaceOnUse"><stop offset="0" stop-color="#1c8aff"/><stop offset="1" stop-color="#0b4fca"/></linearGradient><linearGradient id="Безымянный_градиент_3" x1="55.19" y1="24.19" x2="55.19" y2="5.53" gradientTransform="matrix(1, 0, 0, -1, 0, 79.89)" gradientUnits="userSpaceOnUse"><stop offset="0" stop-color="#14c6a6"/><stop offset="1" stop-color="#04b178"/></linearGradient><linearGradient id="Безымянный_градиент_4" x1="39.5" y1="72.17" x2="18.37" y2="32.88" gradientTransform="matrix(1, 0, 0, -1, 0, 79.89)" gradientUnits="userSpaceOnUse"><stop offset="0" stop-color="#75cdff"/><stop offset="1" stop-color="#00a3ff"/></linearGradient><linearGradient id="Безымянный_градиент_5" x1="67.31" y1="45.12" x2="43.05" y2="51.45" gradientTransform="matrix(1, 0, 0, -1, 0, 79.89)" gradientUnits="userSpaceOnUse"><stop offset="0" stop-color="#236aff"/><stop offset="1" stop-color="#16abff"/></linearGradient></defs><g id="Слой_2" data-name="Слой 2"><g id="Слой_1-2" data-name="Слой 1"><g class="cls-2"><path class="cls-3" d="M40,80A40,40,0,1,0,0,40,40,40,0,0,0,40,80Z"/><path class="cls-4" d="M17.4,33.5a7.7,7.7,0,1,0-7.69-7.69A7.68,7.68,0,0,0,17.4,33.5Z"/><path class="cls-5" d="M44.7,24.76A28.57,28.57,0,0,1,8.91,43.59,27.6,27.6,0,0,1,5.8,42.42h0a22.3,22.3,0,0,0,22-34.62A34.3,34.3,0,0,1,40.06,5.56,32.12,32.12,0,0,1,44,5.79,28.54,28.54,0,0,1,44.7,24.76Z"/><path class="cls-6" d="M73.77,46.55A34.79,34.79,0,0,1,72.25,52a42.19,42.19,0,0,0-8.78-1c-12.25-.19-19.15,5-29.78,8.24a65.46,65.46,0,0,1-20.1,2.71A34.24,34.24,0,0,1,6.12,45.25,43.21,43.21,0,0,0,17.37,48.9c12.44,2.21,19.82-2.28,34.08-3.51A83.51,83.51,0,0,1,73.77,46.55Z"/><path class="cls-7" d="M71.73,53.26a1,1,0,0,0,0,.1c-.1.25-.41.94-.53,1.19a73.94,73.94,0,0,0-9.85.13A33.16,33.16,0,0,0,38.5,67.61a30.82,30.82,0,0,0-2.62,4.76c-.25.56-.46,1.11-.66,1.64a34.06,34.06,0,0,1-14-5.31,33.54,33.54,0,0,1-4.93-3.94,25.24,25.24,0,0,0,2.56.26c10.07.45,25.58-7.2,25.58-7.2C50.09,55,58,52.17,71.66,53.27Z"/><path class="cls-8" d="M70.1,56.62l-.19.32c-.12.22-.24.42-.37.64,0,0-.05.1-.08.14-.25.4-.5.81-.76,1.2A34.24,34.24,0,0,1,64.59,64c-.09.08-.17.18-.26.26A34.32,34.32,0,0,1,43,74.23c-.49,0-1,.08-1.46.1l-1.15,0c-.7-4.89,4.37-11.42,12.38-15.45C59.26,55.61,66,54.88,70.1,56.62Z"/><path class="cls-9" d="M44.75,24.76A28.56,28.56,0,0,1,9,43.59a27.76,27.76,0,0,1-3.12-1.17h0a22.31,22.31,0,0,0,22-34.62A34.21,34.21,0,0,1,40.11,5.56a32.39,32.39,0,0,1,4,.23A28.54,28.54,0,0,1,44.75,24.76Z"/><path class="cls-10" d="M74.11,35.09c-2.59-.86-5.81-2.17-8.63-2-8.33.44-9.88,3.71-23.66,8-5.19,1.6-15.18,5.22-18.77,5.22,4.5-1.18,18.76-6.18,24.67-15A32.78,32.78,0,0,0,52.57,7.89,34.45,34.45,0,0,1,74.11,35.09Z"/></g></g></g></svg>